<mxfile host="app.diagrams.net" modified="2024-03-01T03:50:27.354Z" agent="6u0pReBTChBFEP2Nicxx37Cco15ULHk7" etag="Bvet6Rr1dFKTTjF44X0H" version="23.1.7" type="github">
  <diagram name="Page-1" id="9361dd3d-8414-5efd-6122-117bd74ce7a7">
    <mxGraphModel dx="929" dy="674" grid="1" gridSize="10" guides="1" tooltips="1" connect="1" arrows="1" fold="1" page="0" pageScale="1.5" pageWidth="826" pageHeight="1169" background="none" math="0" shadow="0">
      <root>
        <mxCell id="0" />
        <mxCell id="1" parent="0" />
        <mxCell id="69" value="" style="fillColor=#DEE8FF;strokeColor=none;" parent="1" vertex="1">
          <mxGeometry x="60" y="36" width="1570" height="799" as="geometry" />
        </mxCell>
        <mxCell id="2" value="" style="fillColor=#60a917;strokeColor=#2D7600;fontColor=#ffffff;" parent="1" vertex="1">
          <mxGeometry x="200" y="150" width="10" height="430" as="geometry" />
        </mxCell>
        <mxCell id="3" value="fetchSearchResult()" style="edgeStyle=none;verticalLabelPosition=top;verticalAlign=bottom;labelPosition=left;align=right" parent="1" edge="1">
          <mxGeometry x="110" y="49.5" width="100" height="100" as="geometry">
            <mxPoint x="110" y="149.5" as="sourcePoint" />
            <mxPoint x="200" y="149.5" as="targetPoint" />
          </mxGeometry>
        </mxCell>
        <mxCell id="4" value="SearchResultView" style="shadow=1;fillColor=#A2C4C9;strokeColor=none" parent="1" vertex="1">
          <mxGeometry x="152.5" y="60" width="105" height="50" as="geometry" />
        </mxCell>
        <mxCell id="6" value="" style="fillColor=#60a917;strokeColor=#2D7600;fontColor=#ffffff;" parent="1" vertex="1">
          <mxGeometry x="342.5" y="150" width="10" height="490" as="geometry" />
        </mxCell>
        <mxCell id="7" value="ResultPresenter" style="shadow=1;fillColor=#A2C4C9;strokeColor=none" parent="1" vertex="1">
          <mxGeometry x="295" y="60" width="105" height="50" as="geometry" />
        </mxCell>
        <mxCell id="8" value="" style="edgeStyle=none;endArrow=none;dashed=1" parent="1" source="7" target="6" edge="1">
          <mxGeometry x="272.3350694444445" y="165" width="100" height="100" as="geometry">
            <mxPoint x="347.2588734567901" y="110" as="sourcePoint" />
            <mxPoint x="347.5761959876544" y="165" as="targetPoint" />
          </mxGeometry>
        </mxCell>
        <mxCell id="9" value="requestFirstSearchData()" style="edgeStyle=none;verticalLabelPosition=top;verticalAlign=bottom" parent="1" edge="1">
          <mxGeometry x="220" y="92" width="100" height="100" as="geometry">
            <mxPoint x="210" y="185.5" as="sourcePoint" />
            <mxPoint x="340" y="185.5" as="targetPoint" />
          </mxGeometry>
        </mxCell>
        <mxCell id="15" value="Server" style="shadow=1;fillColor=#A2C4C9;strokeColor=none" parent="1" vertex="1">
          <mxGeometry x="452" y="60" width="120" height="50" as="geometry" />
        </mxCell>
        <mxCell id="21" value="" style="fillColor=#60a917;strokeColor=#2D7600;fontColor=#ffffff;" parent="1" vertex="1">
          <mxGeometry x="674" y="150" width="10" height="520" as="geometry" />
        </mxCell>
        <mxCell id="22" value="SearchResultParser" style="shadow=1;fillColor=#A2C4C9;strokeColor=none" parent="1" vertex="1">
          <mxGeometry x="620" y="60" width="120" height="50" as="geometry" />
        </mxCell>
        <mxCell id="23" value="" style="edgeStyle=none;endArrow=none;dashed=1" parent="1" source="22" target="21" edge="1">
          <mxGeometry x="614.4878472222224" y="174.99999999999997" width="100" height="100" as="geometry">
            <mxPoint x="674.6527777777778" y="110" as="sourcePoint" />
            <mxPoint x="674.6527777777778" y="260" as="targetPoint" />
          </mxGeometry>
        </mxCell>
        <mxCell id="33" value="" style="edgeStyle=elbowEdgeStyle;elbow=horizontal;endArrow=none;dashed=1" parent="1" source="4" target="2" edge="1">
          <mxGeometry x="230.00000000000003" y="310" width="100" height="100" as="geometry">
            <mxPoint x="230.00000000000003" y="410" as="sourcePoint" />
            <mxPoint x="330" y="310" as="targetPoint" />
          </mxGeometry>
        </mxCell>
        <mxCell id="71" value="搜索结果" style="rounded=1;fontStyle=1;fillColor=#FFD966;strokeColor=none" parent="1" vertex="1">
          <mxGeometry x="50" y="20" width="150" height="30" as="geometry" />
        </mxCell>
        <mxCell id="77" value="ref" style="rounded=1;fontStyle=1;fillColor=#FFD966;strokeColor=none" parent="1" vertex="1">
          <mxGeometry x="196.24999999999997" y="707.6157407407409" width="53.75" height="25" as="geometry" />
        </mxCell>
        <mxCell id="jnnIsXKbwoSBbQRXIsRO-101" value="CardGroupRecord" style="shadow=1;fillColor=#A2C4C9;strokeColor=none;" vertex="1" parent="1">
          <mxGeometry x="780" y="60" width="105" height="50" as="geometry" />
        </mxCell>
        <mxCell id="jnnIsXKbwoSBbQRXIsRO-106" value="" style="fillColor=#60a917;strokeColor=#2D7600;fontColor=#ffffff;" vertex="1" parent="1">
          <mxGeometry x="826.96" y="150" width="11.08" height="530" as="geometry" />
        </mxCell>
        <mxCell id="jnnIsXKbwoSBbQRXIsRO-109" value="" style="edgeStyle=none;endArrow=none;dashed=1" edge="1" parent="1" source="17">
          <mxGeometry x="614.4878472222224" y="174.99999999999997" width="100" height="100" as="geometry">
            <mxPoint x="513.8199999999999" y="110" as="sourcePoint" />
            <mxPoint x="514" y="170" as="targetPoint" />
          </mxGeometry>
        </mxCell>
        <mxCell id="jnnIsXKbwoSBbQRXIsRO-113" value="请求tab和首屏数据" style="html=1;verticalAlign=bottom;endArrow=block;rounded=0;exitX=1.35;exitY=0.123;exitDx=0;exitDy=0;exitPerimeter=0;edgeStyle=elbowEdgeStyle;" edge="1" parent="1">
          <mxGeometry width="80" relative="1" as="geometry">
            <mxPoint x="354" y="199.92100000000005" as="sourcePoint" />
            <mxPoint x="506" y="200" as="targetPoint" />
          </mxGeometry>
        </mxCell>
        <mxCell id="jnnIsXKbwoSBbQRXIsRO-114" value="返回tab和首屏数据" style="html=1;verticalAlign=bottom;endArrow=open;dashed=1;endSize=8;curved=0;rounded=0;" edge="1" parent="1">
          <mxGeometry relative="1" as="geometry">
            <mxPoint x="349.28" y="222.86000000000004" as="targetPoint" />
            <mxPoint x="510" y="223" as="sourcePoint" />
          </mxGeometry>
        </mxCell>
        <mxCell id="jnnIsXKbwoSBbQRXIsRO-115" value="" style="edgeStyle=none;endArrow=none;dashed=1" edge="1" parent="1" target="17">
          <mxGeometry x="614.4878472222224" y="174.99999999999997" width="100" height="100" as="geometry">
            <mxPoint x="513.8199999999999" y="110" as="sourcePoint" />
            <mxPoint x="514" y="170" as="targetPoint" />
          </mxGeometry>
        </mxCell>
        <mxCell id="17" value="" style="fillColor=#60a917;strokeColor=#2D7600;fontColor=#ffffff;" parent="1" vertex="1">
          <mxGeometry x="506.46" y="150" width="11.08" height="480" as="geometry" />
        </mxCell>
        <mxCell id="jnnIsXKbwoSBbQRXIsRO-116" value="parseTabData()" style="html=1;verticalAlign=bottom;endArrow=block;curved=0;rounded=0;entryX=-0.5;entryY=0.586;entryDx=0;entryDy=0;entryPerimeter=0;exitX=0.85;exitY=0.454;exitDx=0;exitDy=0;exitPerimeter=0;" edge="1" parent="1">
          <mxGeometry width="80" relative="1" as="geometry">
            <mxPoint x="352" y="258.96000000000004" as="sourcePoint" />
            <mxPoint x="672" y="260.98254" as="targetPoint" />
          </mxGeometry>
        </mxCell>
        <mxCell id="jnnIsXKbwoSBbQRXIsRO-118" value="handleCardGroupData()" style="html=1;align=left;spacingLeft=2;endArrow=block;rounded=0;edgeStyle=orthogonalEdgeStyle;curved=0;rounded=0;" edge="1" parent="1">
          <mxGeometry relative="1" as="geometry">
            <mxPoint x="353" y="280" as="sourcePoint" />
            <Array as="points">
              <mxPoint x="383" y="310" />
            </Array>
            <mxPoint x="358" y="310" as="targetPoint" />
          </mxGeometry>
        </mxCell>
        <mxCell id="jnnIsXKbwoSBbQRXIsRO-119" value="updaeSubColumns()" style="html=1;verticalAlign=bottom;endArrow=block;curved=0;rounded=0;entryX=0;entryY=0.5;entryDx=0;entryDy=0;exitX=1.35;exitY=0.721;exitDx=0;exitDy=0;exitPerimeter=0;" edge="1" parent="1">
          <mxGeometry width="80" relative="1" as="geometry">
            <mxPoint x="354" y="323.03999999999996" as="sourcePoint" />
            <mxPoint x="824.96" y="325" as="targetPoint" />
          </mxGeometry>
        </mxCell>
        <mxCell id="jnnIsXKbwoSBbQRXIsRO-121" value="" style="edgeStyle=none;endArrow=none;dashed=1" edge="1" parent="1">
          <mxGeometry x="614.4878472222224" y="174.99999999999997" width="100" height="100" as="geometry">
            <mxPoint x="833" y="112" as="sourcePoint" />
            <mxPoint x="833" y="150" as="targetPoint" />
          </mxGeometry>
        </mxCell>
        <mxCell id="jnnIsXKbwoSBbQRXIsRO-123" value="appendTiles()" style="html=1;verticalAlign=bottom;endArrow=block;curved=0;rounded=0;entryX=0;entryY=0.5;entryDx=0;entryDy=0;exitX=1.35;exitY=0.721;exitDx=0;exitDy=0;exitPerimeter=0;" edge="1" parent="1">
          <mxGeometry width="80" relative="1" as="geometry">
            <mxPoint x="354" y="343.03999999999996" as="sourcePoint" />
            <mxPoint x="824.96" y="345" as="targetPoint" />
          </mxGeometry>
        </mxCell>
        <mxCell id="jnnIsXKbwoSBbQRXIsRO-124" value="parseFirstSearchColumnData()" style="html=1;verticalAlign=bottom;endArrow=block;curved=0;rounded=0;entryX=-0.5;entryY=0.586;entryDx=0;entryDy=0;entryPerimeter=0;exitX=0.85;exitY=0.454;exitDx=0;exitDy=0;exitPerimeter=0;" edge="1" parent="1">
          <mxGeometry width="80" relative="1" as="geometry">
            <mxPoint x="352" y="370.00000000000006" as="sourcePoint" />
            <mxPoint x="672" y="372.02254" as="targetPoint" />
          </mxGeometry>
        </mxCell>
        <mxCell id="jnnIsXKbwoSBbQRXIsRO-125" value="全部tab的结果 &lt;br&gt;&amp;nbsp;&amp;nbsp; 记录单个媒资分组信息&lt;br&gt;（查看更多，整行显示用到）" style="shape=note;whiteSpace=wrap;html=1;backgroundOutline=1;darkOpacity=0.05;align=center;verticalAlign=middle;fontFamily=Helvetica;fontSize=12;" vertex="1" parent="1">
          <mxGeometry x="884" y="179" width="80" height="100" as="geometry" />
        </mxCell>
        <mxCell id="jnnIsXKbwoSBbQRXIsRO-130" value="" style="endArrow=none;dashed=1;html=1;dashPattern=1 3;strokeWidth=2;rounded=0;strokeColor=default;align=center;verticalAlign=bottom;fontFamily=Helvetica;fontSize=12;fontColor=default;labelBackgroundColor=default;exitX=0.686;exitY=1;exitDx=0;exitDy=0;exitPerimeter=0;" edge="1" parent="1" source="jnnIsXKbwoSBbQRXIsRO-101" target="jnnIsXKbwoSBbQRXIsRO-125">
          <mxGeometry width="50" height="50" relative="1" as="geometry">
            <mxPoint x="900" y="170" as="sourcePoint" />
            <mxPoint x="950" y="120" as="targetPoint" />
          </mxGeometry>
        </mxCell>
        <mxCell id="jnnIsXKbwoSBbQRXIsRO-133" value="return" style="html=1;verticalAlign=bottom;endArrow=open;dashed=1;endSize=8;curved=0;rounded=0;strokeColor=default;align=center;fontFamily=Helvetica;fontSize=12;fontColor=default;labelBackgroundColor=default;exitX=0.25;exitY=0.553;exitDx=0;exitDy=0;exitPerimeter=0;" edge="1" parent="1" source="6">
          <mxGeometry relative="1" as="geometry">
            <mxPoint x="290" y="420" as="sourcePoint" />
            <mxPoint x="210" y="420" as="targetPoint" />
          </mxGeometry>
        </mxCell>
      </root>
    </mxGraphModel>
  </diagram>
</mxfile>
